<mxfile host="Electron" agent="Mozilla/5.0 (Windows NT 10.0; Win64; x64) AppleWebKit/537.36 (KHTML, like Gecko) draw.io/26.1.1 Chrome/132.0.6834.210 Electron/34.3.3 Safari/537.36" version="26.1.1">
  <diagram name="Page-1" id="0Go1meMKCaIbpSAQUN-O">
    <mxGraphModel dx="1886" dy="1706" grid="1" gridSize="10" guides="1" tooltips="1" connect="1" arrows="1" fold="1" page="1" pageScale="1" pageWidth="850" pageHeight="1100" math="0" shadow="0">
      <root>
        <mxCell id="0" />
        <mxCell id="1" parent="0" />
        <mxCell id="fziOAV0O-x6QPgWiYuab-1" value="Clents" style="whiteSpace=wrap;html=1;align=center;" vertex="1" parent="1">
          <mxGeometry x="50" y="90" width="100" height="40" as="geometry" />
        </mxCell>
        <mxCell id="fziOAV0O-x6QPgWiYuab-2" value="Clent_id" style="ellipse;whiteSpace=wrap;html=1;align=center;fontStyle=4;fillColor=#dae8fc;strokeColor=#6c8ebf;gradientColor=none;" vertex="1" parent="1">
          <mxGeometry x="-100" width="100" height="40" as="geometry" />
        </mxCell>
        <mxCell id="fziOAV0O-x6QPgWiYuab-3" value="phone" style="ellipse;shape=doubleEllipse;margin=3;whiteSpace=wrap;html=1;align=center;" vertex="1" parent="1">
          <mxGeometry x="170" y="10" width="100" height="40" as="geometry" />
        </mxCell>
        <mxCell id="fziOAV0O-x6QPgWiYuab-4" value="Adress" style="ellipse;whiteSpace=wrap;html=1;align=center;" vertex="1" parent="1">
          <mxGeometry x="50" y="-50" width="100" height="40" as="geometry" />
        </mxCell>
        <mxCell id="fziOAV0O-x6QPgWiYuab-5" value="state" style="ellipse;whiteSpace=wrap;html=1;align=center;" vertex="1" parent="1">
          <mxGeometry x="40" y="-170" width="100" height="40" as="geometry" />
        </mxCell>
        <mxCell id="fziOAV0O-x6QPgWiYuab-6" value="country" style="ellipse;whiteSpace=wrap;html=1;align=center;" vertex="1" parent="1">
          <mxGeometry x="160" y="-150" width="100" height="40" as="geometry" />
        </mxCell>
        <mxCell id="fziOAV0O-x6QPgWiYuab-7" value="city" style="ellipse;whiteSpace=wrap;html=1;align=center;" vertex="1" parent="1">
          <mxGeometry x="-60" y="-140" width="100" height="40" as="geometry" />
        </mxCell>
        <mxCell id="fziOAV0O-x6QPgWiYuab-8" value="" style="endArrow=none;html=1;rounded=0;" edge="1" parent="1" source="fziOAV0O-x6QPgWiYuab-6" target="fziOAV0O-x6QPgWiYuab-4">
          <mxGeometry relative="1" as="geometry">
            <mxPoint x="340" y="-90" as="sourcePoint" />
            <mxPoint x="500" y="-90" as="targetPoint" />
          </mxGeometry>
        </mxCell>
        <mxCell id="fziOAV0O-x6QPgWiYuab-9" value="" style="endArrow=none;html=1;rounded=0;entryX=0.576;entryY=0.045;entryDx=0;entryDy=0;entryPerimeter=0;" edge="1" parent="1" source="fziOAV0O-x6QPgWiYuab-5" target="fziOAV0O-x6QPgWiYuab-4">
          <mxGeometry relative="1" as="geometry">
            <mxPoint x="90" y="-160" as="sourcePoint" />
            <mxPoint x="250" y="-160" as="targetPoint" />
          </mxGeometry>
        </mxCell>
        <mxCell id="fziOAV0O-x6QPgWiYuab-10" value="" style="endArrow=none;html=1;rounded=0;" edge="1" parent="1" source="fziOAV0O-x6QPgWiYuab-7" target="fziOAV0O-x6QPgWiYuab-4">
          <mxGeometry relative="1" as="geometry">
            <mxPoint x="-80" y="-60" as="sourcePoint" />
            <mxPoint x="80" y="-60" as="targetPoint" />
          </mxGeometry>
        </mxCell>
        <mxCell id="fziOAV0O-x6QPgWiYuab-11" value="" style="endArrow=none;html=1;rounded=0;" edge="1" parent="1" source="fziOAV0O-x6QPgWiYuab-3" target="fziOAV0O-x6QPgWiYuab-1">
          <mxGeometry relative="1" as="geometry">
            <mxPoint x="340" y="-90" as="sourcePoint" />
            <mxPoint x="500" y="-90" as="targetPoint" />
          </mxGeometry>
        </mxCell>
        <mxCell id="fziOAV0O-x6QPgWiYuab-12" value="" style="endArrow=none;html=1;rounded=0;" edge="1" parent="1" source="fziOAV0O-x6QPgWiYuab-4" target="fziOAV0O-x6QPgWiYuab-1">
          <mxGeometry relative="1" as="geometry">
            <mxPoint x="340" y="20" as="sourcePoint" />
            <mxPoint x="500" y="20" as="targetPoint" />
          </mxGeometry>
        </mxCell>
        <mxCell id="fziOAV0O-x6QPgWiYuab-13" value="" style="endArrow=none;html=1;rounded=0;" edge="1" parent="1" source="fziOAV0O-x6QPgWiYuab-2" target="fziOAV0O-x6QPgWiYuab-1">
          <mxGeometry relative="1" as="geometry">
            <mxPoint x="-90" y="80" as="sourcePoint" />
            <mxPoint x="70" y="80" as="targetPoint" />
          </mxGeometry>
        </mxCell>
        <mxCell id="fziOAV0O-x6QPgWiYuab-14" value="name" style="ellipse;whiteSpace=wrap;html=1;align=center;" vertex="1" parent="1">
          <mxGeometry x="-100" y="60" width="100" height="40" as="geometry" />
        </mxCell>
        <mxCell id="fziOAV0O-x6QPgWiYuab-15" value="" style="endArrow=none;html=1;rounded=0;" edge="1" parent="1" source="fziOAV0O-x6QPgWiYuab-14" target="fziOAV0O-x6QPgWiYuab-1">
          <mxGeometry relative="1" as="geometry">
            <mxPoint x="20" y="230" as="sourcePoint" />
            <mxPoint x="180" y="230" as="targetPoint" />
          </mxGeometry>
        </mxCell>
        <mxCell id="fziOAV0O-x6QPgWiYuab-16" value="User_permissions" style="ellipse;whiteSpace=wrap;html=1;align=center;" vertex="1" parent="1">
          <mxGeometry x="160" y="-60" width="100" height="40" as="geometry" />
        </mxCell>
        <mxCell id="fziOAV0O-x6QPgWiYuab-17" value="ban" style="ellipse;whiteSpace=wrap;html=1;align=center;" vertex="1" parent="1">
          <mxGeometry x="-80" y="-80" width="100" height="40" as="geometry" />
        </mxCell>
        <mxCell id="fziOAV0O-x6QPgWiYuab-18" value="" style="endArrow=none;html=1;rounded=0;" edge="1" parent="1" source="fziOAV0O-x6QPgWiYuab-16" target="fziOAV0O-x6QPgWiYuab-1">
          <mxGeometry relative="1" as="geometry">
            <mxPoint x="-70" y="270" as="sourcePoint" />
            <mxPoint x="90" y="270" as="targetPoint" />
          </mxGeometry>
        </mxCell>
        <mxCell id="fziOAV0O-x6QPgWiYuab-19" value="" style="endArrow=none;html=1;rounded=0;" edge="1" parent="1" source="fziOAV0O-x6QPgWiYuab-17" target="fziOAV0O-x6QPgWiYuab-1">
          <mxGeometry relative="1" as="geometry">
            <mxPoint x="-60" y="240" as="sourcePoint" />
            <mxPoint x="100" y="240" as="targetPoint" />
          </mxGeometry>
        </mxCell>
      </root>
    </mxGraphModel>
  </diagram>
</mxfile>
